<?xml version="1.0" encoding="UTF-8" standalone="no"?>
<!DOCTYPE svg PUBLIC "-//W3C//DTD SVG 1.1//EN" "http://www.w3.org/Graphics/SVG/1.1/DTD/svg11.dtd">
<svg xmlns="http://www.w3.org/2000/svg" version="1.1" viewBox="0.00 0.00 162.00 175.00">
<path fill="currentcolor" d="
  M 95.73 57.26
  C 102.62 60.05 110.39 54.73 114.46 49.42
  A 0.40 0.40 0.0 0 1 115.16 49.76
  Q 113.71 55.59 108.93 59.24
  A 0.58 0.57 -47.0 0 0 108.96 60.17
  C 118.83 66.84 132.62 66.85 141.27 57.95
  C 149.45 49.52 150.98 35.76 139.58 29.04
  C 130.82 23.87 119.34 28.11 112.63 34.98
  Q 112.18 35.45 112.12 34.79
  C 111.78 30.88 115.83 30.00 113.56 24.57
  C 108.74 13.00 96.82 7.83 84.83 10.06
  C 79.09 11.12 72.40 14.64 66.39 17.15
  C 57.19 21.01 49.85 22.95 40.53 23.92
  A 0.37 0.37 0.0 0 1 40.38 23.20
  C 52.25 19.37 62.58 12.72 73.14 5.80
  C 80.53 0.95 86.50 0.15 94.97 2.24
  C 106.26 5.02 115.90 12.10 118.22 23.69
  A 1.62 1.61 73.2 0 0 120.41 24.87
  C 135.70 18.68 153.42 27.88 152.26 45.51
  C 151.42 58.38 141.42 68.64 128.59 69.68
  C 125.04 69.97 120.39 69.10 116.32 68.95
  A 1.52 1.52 0.0 0 0 114.75 70.47
  L 114.75 92.75
  Q 114.75 93.52 114.12 93.07
  C 100.57 83.29 84.78 80.19 68.97 78.13
  A 0.22 0.21 -41.4 0 1 69.00 77.70
  Q 89.45 77.23 108.53 84.46
  A 1.02 1.02 0.0 0 0 109.90 83.59
  C 110.51 76.32 110.54 67.95 102.73 64.45
  Q 81.37 54.90 56.99 60.75
  Q 49.74 62.49 47.81 68.68
  C 47.31 70.28 46.64 70.55 45.06 70.64
  C 29.24 71.58 14.97 63.72 11.82 47.39
  C 9.66 36.26 13.97 25.90 23.91 20.52
  C 34.28 14.90 48.41 15.61 59.99 9.91
  Q 61.00 9.42 60.28 10.28
  C 57.62 13.48 50.40 15.95 46.73 16.95
  C 32.14 20.94 18.91 22.22 15.72 38.01
  C 13.31 49.97 21.78 61.56 33.83 63.68
  C 37.04 64.24 45.13 63.37 46.33 59.42
  Q 46.50 58.86 46.10 58.43
  C 41.74 53.85 38.66 49.97 37.16 43.69
  A 0.36 0.36 0.0 0 1 37.82 43.43
  Q 46.62 58.42 64.52 57.24
  C 72.09 56.74 79.99 56.43 82.00 47.42
  A 0.39 0.39 0.0 0 1 82.77 47.46
  Q 83.28 51.15 82.18 54.74
  Q 81.82 55.93 83.06 55.83
  C 93.22 55.00 99.31 46.74 100.09 36.96
  A 0.34 0.33 -49.2 0 1 100.75 36.91
  Q 103.28 48.18 95.50 56.18
  Q 94.81 56.89 95.73 57.26
  Z"
/>
<path fill="currentcolor" d="
  M 53.43 151.64
  Q 56.97 145.38 64.04 143.80
  A 0.72 0.72 0.0 0 0 64.46 142.68
  Q 50.05 123.05 34.58 104.18
  C 30.17 98.79 24.96 94.38 17.84 98.84
  Q 14.08 101.19 13.95 105.26
  Q 13.93 105.70 13.55 105.50
  C 11.65 104.50 15.00 99.21 15.95 98.43
  Q 17.04 97.53 17.48 96.49
  Q 17.70 95.99 17.43 95.53
  Q 14.50 90.50 11.99 85.29
  C 11.08 83.40 7.15 81.37 5.66 84.19
  C 4.50 86.39 7.35 90.31 8.91 91.58
  Q 11.24 93.49 12.86 95.13
  Q 13.44 95.72 12.67 95.41
  Q 4.45 92.15 2.84 84.17
  Q 1.57 77.88 8.25 77.94
  C 10.41 77.96 12.50 80.83 13.54 82.99
  C 15.57 87.20 17.30 91.08 20.76 93.75
  Q 21.17 94.06 21.65 93.88
  C 26.91 91.93 30.07 93.87 33.51 98.12
  Q 50.62 119.26 67.46 140.61
  C 70.97 145.06 70.75 147.48 67.10 151.53
  Q 66.67 152.00 67.07 152.50
  C 70.08 156.22 73.29 158.00 77.01 160.41
  Q 80.04 162.37 80.90 164.18
  C 86.14 175.26 69.00 176.09 67.32 164.38
  A 0.21 0.21 0.0 0 1 67.72 164.26
  C 71.30 172.37 82.58 171.05 75.84 162.29
  Q 75.05 161.25 72.68 159.74
  Q 69.05 157.42 66.02 154.12
  A 1.20 1.20 0.0 0 0 64.21 154.17
  Q 63.52 155.00 62.80 154.69
  Q 62.45 154.53 62.28 154.19
  Q 62.14 153.89 62.06 153.48
  Q 61.74 151.71 62.88 150.72
  Q 63.31 150.35 63.87 150.34
  Q 66.88 150.29 67.70 147.25
  A 1.66 1.66 0.0 0 0 65.63 145.23
  Q 59.12 147.12 55.71 152.64
  C 53.99 155.41 55.60 156.32 58.34 156.10
  Q 59.19 156.03 58.64 156.68
  C 56.62 159.08 53.86 157.68 52.15 155.56
  Q 38.22 138.34 24.69 120.74
  Q 22.56 117.97 24.89 120.57
  L 52.71 151.71
  Q 53.12 152.18 53.43 151.64
  Z"
/>
<path fill="currentcolor" d="
  M 51.30 86.86
  C 70.97 82.24 90.94 94.71 110.65 96.44
  A 0.27 0.27 0.0 0 1 110.66 96.97
  C 95.22 99.15 81.61 96.12 66.70 92.79
  Q 62.88 91.94 60.20 94.73
  C 55.74 99.36 65.00 101.89 67.82 102.05
  Q 78.01 102.63 88.30 102.47
  Q 89.38 102.45 88.32 102.67
  Q 73.68 105.69 58.82 103.94
  C 41.66 101.93 45.90 90.54 48.23 79.08
  A 0.30 0.30 0.0 0 1 48.82 79.08
  L 50.50 86.37
  Q 50.65 87.01 51.30 86.86
  Z"
/>
<path fill="currentcolor" d="
  M 111.59 146.08
  C 105.93 152.99 106.70 163.28 97.83 167.31
  C 91.42 170.21 87.29 164.96 88.75 159.00
  C 90.20 153.08 100.18 147.82 104.71 143.49
  Q 106.92 141.39 105.01 139.49
  Q 104.64 139.12 104.81 138.63
  C 105.70 136.11 107.92 137.70 109.01 136.50
  C 118.55 126.05 121.23 111.19 124.99 100.50
  C 129.06 88.92 138.14 79.86 151.26 83.50
  C 155.83 84.76 159.00 89.25 159.95 93.92
  C 162.37 105.89 154.86 113.87 145.12 119.78
  C 134.35 126.33 124.37 130.98 116.21 142.11
  Q 115.90 142.53 115.98 143.05
  L 116.31 145.28
  Q 116.42 145.98 115.75 146.21
  Q 113.97 146.83 112.20 145.95
  A 0.50 0.49 32.7 0 0 111.59 146.08
  Z
  M 123.92 109.54
  C 128.59 98.65 135.67 90.04 146.45 84.66
  Q 147.53 84.12 146.32 84.10
  C 132.55 83.80 126.08 97.76 123.15 109.27
  A 0.41 0.41 0.0 0 0 123.92 109.54
  Z
  M 121.00 123.97
  C 127.62 109.10 137.11 96.28 150.01 86.06
  Q 150.86 85.39 149.78 85.50
  C 134.68 87.13 123.07 110.57 119.85 123.58
  A 0.61 0.61 0.0 0 0 121.00 123.97
  Z
  M 122.05 126.69
  L 152.68 87.88
  A 0.61 0.61 0.0 0 0 151.92 86.96
  C 138.66 93.86 127.13 113.11 121.48 126.36
  A 0.33 0.33 0.0 0 0 122.05 126.69
  Z
  M 154.11 88.07
  L 122.55 127.92
  A 0.40 0.40 0.0 0 0 123.11 128.49
  Q 140.74 115.08 152.29 96.25
  Q 154.56 92.56 154.83 88.35
  A 0.41 0.40 66.1 0 0 154.11 88.07
  Z
  M 155.54 91.77
  C 149.80 105.20 138.64 116.82 127.66 126.50
  A 0.44 0.44 0.0 0 0 128.10 127.25
  C 139.62 123.12 152.02 108.38 156.04 97.14
  C 156.68 95.34 156.46 93.19 156.83 91.20
  Q 156.96 90.52 156.34 90.82
  Q 155.84 91.06 155.54 91.77
  Z
  M 158.28 93.99
  C 155.23 105.66 149.30 111.87 141.05 120.07
  A 0.31 0.31 0.0 0 0 141.42 120.55
  C 150.17 115.42 162.56 105.68 158.75 93.97
  Q 158.49 93.18 158.28 93.99
  Z
  M 106.68 143.58
  C 102.34 148.61 93.07 152.98 91.44 159.64
  A 2.22 2.22 0.0 0 0 93.04 162.32
  C 103.14 164.99 106.64 151.62 109.77 144.68
  Q 109.97 144.24 109.79 143.79
  C 109.09 142.00 107.79 142.29 106.68 143.58
  Z"
/>
</svg>
