<?xml version="1.0" encoding="UTF-8" standalone="no"?>
<!DOCTYPE svg PUBLIC "-//W3C//DTD SVG 1.1//EN" "http://www.w3.org/Graphics/SVG/1.1/DTD/svg11.dtd">
<svg xmlns="http://www.w3.org/2000/svg" version="1.1" viewBox="0.00 0.00 500.00 500.00">
<path fill="currentcolor" d="
  M 241.56 0.00
  L 258.06 0.00
  C 266.81 0.85 276.44 1.49 284.29 2.58
  C 401.21 18.74 491.51 115.79 498.74 233.73
  Q 499.98 253.94 498.84 267.82
  C 489.35 384.12 404.63 477.14 289.54 496.47
  C 285.17 497.20 280.06 497.61 275.37 498.19
  C 261.02 499.96 245.82 499.46 231.39 498.98
  C 228.72 498.90 225.96 498.27 223.18 498.05
  Q 218.09 497.65 217.00 497.50
  Q 140.97 487.18 84.46 436.80
  Q 14.39 374.34 1.95 280.66
  C 1.01 273.59 0.85 264.83 0.00 256.94
  L 0.00 240.19
  C 0.84 231.43 1.47 221.92 2.61 213.97
  C 18.28 104.88 104.80 18.47 213.93 2.76
  C 222.37 1.54 232.33 0.85 241.56 0.00
  Z
  M 484.67 249.77
  A 234.94 234.94 0.0 0 0 249.73 14.83
  A 234.94 234.94 0.0 0 0 14.79 249.77
  A 234.94 234.94 0.0 0 0 249.73 484.71
  A 234.94 234.94 0.0 0 0 484.67 249.77
  Z"
/>
<path fill="currentcolor" d="
  M 289.78 120.53
  C 286.84 123.42 290.53 126.76 293.10 124.21
  Q 314.25 103.19 335.30 82.05
  Q 336.63 80.72 338.42 80.72
  Q 338.95 80.71 339.30 81.12
  C 340.88 82.94 339.93 84.79 338.36 86.34
  Q 317.78 106.54 297.51 127.04
  C 296.05 128.52 294.92 130.99 297.40 132.08
  A 2.25 2.25 0.0 0 0 299.91 131.61
  Q 321.42 110.04 343.11 88.87
  Q 344.22 87.79 345.75 87.70
  Q 347.85 87.56 346.95 89.47
  Q 346.52 90.37 345.85 91.11
  Q 329.89 108.89 313.78 126.53
  C 306.25 134.77 302.41 140.04 292.43 139.94
  C 280.20 139.82 275.45 144.27 266.40 152.33
  Q 262.04 156.22 257.90 160.36
  Q 257.50 160.76 257.08 160.39
  L 253.53 157.18
  Q 252.97 156.68 253.49 156.15
  Q 263.87 145.33 268.67 139.43
  C 272.92 134.21 273.67 128.03 274.06 121.55
  C 274.71 110.64 278.69 107.82 286.12 100.99
  Q 304.15 84.43 323.24 67.25
  A 1.56 1.56 0.0 0 1 325.42 67.33
  C 326.71 68.67 325.48 70.05 324.31 71.22
  Q 303.50 92.20 282.60 113.10
  Q 280.79 114.91 281.97 117.03
  Q 282.23 117.50 282.75 117.63
  C 283.96 117.96 285.25 117.81 286.21 116.84
  Q 306.84 96.34 327.37 75.75
  C 328.63 74.49 329.73 72.80 331.74 73.72
  C 334.03 74.75 332.88 76.98 331.57 78.35
  Q 310.98 99.73 289.78 120.53
  Z"
/>
<path fill="currentcolor" d="
  M 234.57 138.98
  C 236.09 145.68 239.21 148.89 244.59 154.48
  C 266.77 177.57 297.46 195.59 317.83 212.17
  C 326.58 219.29 346.81 236.90 342.15 250.40
  C 339.58 257.84 330.90 259.33 323.99 256.27
  Q 318.61 253.89 312.67 248.32
  C 293.90 230.73 280.32 209.25 265.50 188.47
  C 256.34 175.63 246.40 164.29 235.55 154.47
  C 228.98 148.52 222.35 147.86 213.59 148.79
  C 182.89 152.02 165.26 120.01 160.32 94.69
  C 158.77 86.78 159.99 77.18 168.84 74.92
  C 178.96 72.35 190.84 76.75 199.92 80.86
  C 214.48 87.43 229.96 98.63 233.50 114.94
  C 235.22 122.85 232.78 131.12 234.57 138.98
  Z"
/>
<path fill="currentcolor" d="
  M 158.02 252.25
  C 145.65 233.06 202.75 195.72 214.97 187.48
  Q 228.65 178.24 241.23 167.50
  A 1.20 1.19 49.8 0 1 242.93 167.65
  L 246.26 171.68
  Q 246.65 172.16 246.26 172.64
  C 228.18 195.18 213.36 219.68 193.97 241.22
  C 186.95 249.02 167.59 267.09 158.02 252.25
  Z"
/>
<path fill="currentcolor" d="
  M 254.65 331.10
  L 266.60 311.28
  Q 266.91 310.75 267.53 310.75
  L 276.77 310.75
  Q 277.83 310.75 277.28 311.66
  Q 268.38 326.43 259.76 340.76
  C 257.76 344.10 259.11 355.10 258.91 359.43
  Q 258.88 360.00 258.31 360.00
  L 248.30 360.00
  Q 247.80 360.00 247.79 359.50
  C 247.73 355.62 248.70 344.06 246.99 341.25
  Q 237.94 326.36 228.98 311.28
  A 0.35 0.35 0.0 0 1 229.28 310.75
  L 239.89 310.75
  Q 240.39 310.75 240.66 311.18
  L 252.69 331.10
  Q 253.67 332.72 254.65 331.10
  Z"
/>
<path fill="currentcolor" d="
  M 68.61 331.19
  L 80.62 311.27
  Q 80.94 310.75 81.55 310.75
  L 91.25 310.75
  A 0.32 0.32 0.0 0 1 91.52 311.23
  L 73.28 341.52
  Q 73.00 341.98 73.00 342.52
  L 73.00 359.25
  Q 73.00 360.00 72.25 360.00
  L 62.30 360.00
  Q 61.81 360.00 61.80 359.51
  C 61.71 355.21 62.78 344.44 60.81 341.14
  Q 52.00 326.45 43.22 311.67
  A 0.61 0.61 0.0 0 1 43.75 310.75
  L 53.92 310.75
  Q 54.41 310.75 54.67 311.18
  L 66.74 331.19
  Q 67.68 332.74 68.61 331.19
  Z"
/>
<path fill="currentcolor" d="
  M 114.53 346.23
  C 118.62 353.18 130.23 352.77 133.76 345.69
  Q 134.95 343.30 134.98 337.57
  Q 135.04 324.58 134.99 311.49
  A 0.74 0.73 -0.4 0 1 135.73 310.75
  L 145.48 310.75
  Q 145.95 310.75 145.96 311.23
  Q 146.11 324.92 145.94 338.59
  Q 145.85 345.25 144.39 348.77
  C 137.79 364.71 110.43 364.84 103.62 349.14
  Q 101.99 345.39 101.84 337.59
  Q 101.58 324.42 101.82 311.23
  Q 101.83 310.75 102.31 310.75
  L 112.45 310.75
  Q 112.96 310.75 112.97 311.26
  Q 113.07 326.54 112.97 341.75
  Q 112.96 343.57 114.53 346.23
  Z"
/>
<path fill="currentcolor" d="
  M 173.34 331.36
  C 172.79 331.55 172.99 356.79 172.97 359.48
  Q 172.97 360.00 172.46 360.00
  L 163.75 360.00
  Q 163.00 360.00 163.00 359.25
  L 163.00 311.38
  Q 163.00 310.75 163.63 310.75
  L 171.51 310.75
  Q 172.14 310.75 172.46 311.29
  L 190.03 340.49
  A 0.72 0.71 44.9 0 0 191.26 340.49
  L 208.64 311.22
  Q 208.92 310.75 209.47 310.75
  L 217.33 310.75
  Q 217.92 310.75 217.92 311.33
  L 218.21 359.14
  Q 218.22 360.00 217.36 360.00
  L 208.75 360.00
  Q 208.00 360.00 208.00 359.25
  L 208.00 331.97
  A 0.69 0.68 -13.2 0 0 207.01 331.36
  Q 206.63 331.56 206.32 332.07
  Q 199.80 343.16 193.22 354.21
  Q 192.89 354.75 192.26 354.75
  L 188.69 354.75
  Q 188.08 354.75 187.77 354.23
  L 173.94 331.57
  Q 173.73 331.22 173.34 331.36
  Z"
/>
<path fill="currentcolor" d="
  M 292.84 359.99
  L 282.50 360.00
  A 0.49 0.49 0.0 0 1 282.05 359.31
  L 303.59 311.04
  A 0.49 0.49 0.0 0 1 304.04 310.75
  L 314.67 310.75
  A 0.49 0.49 0.0 0 1 315.12 311.04
  L 336.71 359.31
  A 0.49 0.49 0.0 0 1 336.26 360.00
  L 325.58 359.99
  A 0.49 0.49 0.0 0 1 325.13 359.68
  L 320.91 349.31
  A 0.49 0.49 0.0 0 0 320.46 349.00
  L 298.14 349.00
  A 0.49 0.49 0.0 0 0 297.69 349.30
  L 293.29 359.69
  A 0.49 0.49 0.0 0 1 292.84 359.99
  Z
  M 301.47 340.31
  A 0.52 0.52 0.0 0 0 301.95 341.03
  L 316.70 340.97
  A 0.52 0.52 0.0 0 0 317.17 340.25
  L 309.74 322.59
  A 0.52 0.52 0.0 0 0 308.78 322.59
  L 301.47 340.31
  Z"
/>
<path fill="currentcolor" d="
  M 358.24 346.82
  L 358.28 359.11
  A 0.88 0.88 0.0 0 1 357.40 360.00
  L 347.62 360.00
  Q 347.00 360.00 347.00 359.37
  L 347.00 311.55
  A 0.75 0.75 0.0 0 1 347.74 310.80
  Q 360.56 310.58 373.50 310.96
  C 375.08 311.00 375.99 311.64 377.49 312.01
  C 392.75 315.82 394.25 336.21 380.73 343.63
  A 1.02 1.02 0.0 0 0 380.39 345.12
  L 390.48 359.32
  A 0.43 0.42 -17.7 0 1 390.13 359.99
  L 379.32 360.00
  Q 378.92 360.00 378.69 359.68
  L 369.41 346.35
  Q 369.17 346.00 368.73 346.00
  L 359.05 346.01
  Q 358.23 346.01 358.24 346.82
  Z
  M 358.26 320.69
  L 358.28 336.17
  A 0.88 0.88 0.0 0 0 359.17 337.05
  L 369.68 337.03
  A 9.05 8.50 -0.1 0 0 378.71 328.51
  L 378.71 328.27
  A 9.05 8.50 -0.1 0 0 369.64 319.79
  L 359.13 319.81
  A 0.88 0.88 0.0 0 0 358.26 320.69
  Z"
/>
<path fill="currentcolor" d="
  M 403.95 311.57
  A 0.83 0.83 0.0 0 1 404.78 310.74
  L 428.23 310.70
  A 25.50 23.63 -0.1 0 1 453.77 334.29
  L 453.77 336.27
  A 25.50 23.63 -0.1 0 1 428.31 359.94
  L 404.86 359.98
  A 0.83 0.83 0.0 0 1 404.03 359.15
  L 403.95 311.57
  Z
  M 415.30 321.04
  L 415.20 349.62
  A 1.18 1.18 0.0 0 0 416.38 350.81
  L 427.23 350.84
  A 15.21 14.58 0.2 0 0 442.49 336.32
  L 442.49 334.54
  A 15.21 14.58 0.2 0 0 427.33 319.90
  L 416.48 319.87
  A 1.18 1.18 0.0 0 0 415.30 321.04
  Z"
/>
</svg>
